HIERARCHY
ROOT Hips
{
	OFFSET 0.000000 0.000000 0.000000
	CHANNELS 6 Xposition Yposition Zposition Xrotation Yrotation Zrotation
	JOINT LeftUpLeg_virtual
	{
		OFFSET 0.000000 0.000000 0.000000
		CHANNELS 3 Xrotation Yrotation Zrotation
		JOINT LeftUpLeg
		{
			OFFSET 13.026900 -6.336304 -1.092800
			CHANNELS 3 Xrotation Yrotation Zrotation
			JOINT LeftLeg
			{
				OFFSET 0.524474 -46.096886 9.782700
				CHANNELS 3 Xrotation Yrotation Zrotation
				JOINT LeftFoot
				{
					OFFSET -0.524474 -53.427422 -12.948200
					CHANNELS 3 Xrotation Yrotation Zrotation
					JOINT LeftToeBase
					{
						OFFSET 0.192200 -14.009700 16.364100
						CHANNELS 3 Xrotation Yrotation Zrotation
						JOINT LeftToe_End
						{
							OFFSET -1.784700 -0.561700 9.474800
							CHANNELS 3 Xrotation Yrotation Zrotation
							End Site
							{
								OFFSET 0 0 0
							}
						}
					}
				}
			}
		}
	}
	JOINT RightUpLeg_virtual
	{
		OFFSET 0.000000 0.000000 0.000000
		CHANNELS 3 Xrotation Yrotation Zrotation
		JOINT RightUpLeg
		{
			OFFSET -12.883000 -6.336304 -1.092800
			CHANNELS 3 Xrotation Yrotation Zrotation
			JOINT RightLeg
			{
				OFFSET -0.524587 -46.096825 9.782800
				CHANNELS 3 Xrotation Yrotation Zrotation
				JOINT RightFoot
				{
					OFFSET 0.524587 -53.427383 -12.948300
					CHANNELS 3 Xrotation Yrotation Zrotation
					JOINT RightToeBase
					{
						OFFSET -0.192200 -14.009700 16.364100
						CHANNELS 3 Xrotation Yrotation Zrotation
						JOINT RightToe_End
						{
							OFFSET 1.784700 -0.561700 9.474800
							CHANNELS 3 Xrotation Yrotation Zrotation
							End Site
							{
								OFFSET 0 0 0
							}
						}
					}
				}
			}
		}
	}
	JOINT Spine_virtual
	{
		OFFSET 0.000000 0.000000 0.000000
		CHANNELS 3 Xrotation Yrotation Zrotation
		JOINT Spine
		{
			OFFSET 0.072000 7.257294 -0.789700
			CHANNELS 3 Xrotation Yrotation Zrotation
			JOINT Spine1
			{
				OFFSET 0.000000 12.508769 -0.658067
				CHANNELS 3 Xrotation Yrotation Zrotation
				JOINT Spine1_split
				{
					OFFSET 0.000000 12.508769 -0.658067
					CHANNELS 3 Xrotation Yrotation Zrotation
					JOINT Spine2
					{
						OFFSET 0.000000 12.508769 -0.658067
						CHANNELS 3 Xrotation Yrotation Zrotation
						JOINT Neck_virtual
						{
							OFFSET 0.000000 0.000000 0.000000
							CHANNELS 3 Xrotation Yrotation Zrotation
							JOINT Neck
							{
								OFFSET 0.000000 14.033295 7.520400
								CHANNELS 3 Xrotation Yrotation Zrotation
								JOINT Head
								{
									OFFSET 0.000000 8.198502 5.703100
									CHANNELS 3 Xrotation Yrotation Zrotation
									JOINT HeadTop_End
									{
										OFFSET 0.000000 17.760803 13.332701
										CHANNELS 3 Xrotation Yrotation Zrotation
										End Site
										{
											OFFSET 0 0 0
										}
									}
								}
							}
						}
						JOINT LeftShoulder_virtual
						{
							OFFSET 0.000000 0.000000 0.000000
							CHANNELS 3 Xrotation Yrotation Zrotation
							JOINT LeftShoulder
							{
								OFFSET 6.292450 5.785301 -0.669000
								CHANNELS 3 Xrotation Yrotation Zrotation
								JOINT LeftShoulder_split
								{
									OFFSET 6.292450 5.785301 -0.669000
									CHANNELS 3 Xrotation Yrotation Zrotation
									JOINT LeftArm
									{
										OFFSET 13.907140 -6.093903 1.965100
										CHANNELS 3 Xrotation Yrotation Zrotation
										JOINT LeftForeArm
										{
											OFFSET 34.140198 0.000000 0.000000
											CHANNELS 3 Xrotation Yrotation Zrotation
											JOINT LeftHand
											{
												OFFSET 40.960209 0.000000 0.000000
												CHANNELS 3 Xrotation Yrotation Zrotation
												End Site
												{
													OFFSET 0 0 0
												}
											}
										}
									}
								}
							}
						}
						JOINT RightShoulder_virtual
						{
							OFFSET 0.000000 0.000000 0.000000
							CHANNELS 3 Xrotation Yrotation Zrotation
							JOINT RightShoulder
							{
								OFFSET -6.292450 5.785301 -0.669000
								CHANNELS 3 Xrotation Yrotation Zrotation
								JOINT RightShoulder_split
								{
									OFFSET -6.292450 5.785301 -0.669000
									CHANNELS 3 Xrotation Yrotation Zrotation
									JOINT RightArm
									{
										OFFSET -13.907140 -6.093903 1.965100
										CHANNELS 3 Xrotation Yrotation Zrotation
										JOINT RightForeArm
										{
											OFFSET -34.140198 0.000000 0.000000
											CHANNELS 3 Xrotation Yrotation Zrotation
											JOINT RightHand
											{
												OFFSET -40.960209 0.000000 0.000000
												CHANNELS 3 Xrotation Yrotation Zrotation
												End Site
												{
													OFFSET 0 0 0
												}
											}
										}
									}
								}
							}
						}
					}
				}
			}
		}
	}
}
MOTION
Frames: 8
Frame Time: 0.03333333
1.102076 112.853394 -59.504410 0.000000 0.000000 0.000000 167.327846 -67.106185 165.857784 -30.621111 6.417139 18.235698 36.715730 -1.611804 -2.192425 -5.829321 1.159028 -3.918672 2.566718 4.962154 -7.109722 0.000000 0.000000 0.000000 167.327846 -67.106185 165.857784 -15.118308 -13.499719 8.842205 24.805883 8.954002 0.578039 -12.634655 0.366487 -11.349074 -2.250479 -8.125657 0.521800 0.000000 0.000000 0.000000 167.327846 -67.106185 165.857784 4.570149 1.688379 5.388319 -5.164933 2.150027 -2.923070 0.000000 0.000000 0.000000 0.000000 0.000000 0.000000 -5.019355 1.931774 -3.197911 0.778539 24.374532 9.969768 4.517285 28.566476 -14.246893 0.000000 0.000000 0.000000 -5.019355 1.931774 -3.197911 1.072967 -0.392539 0.398384 0.000000 0.000000 0.000000 6.971146 0.203080 -68.561494 7.857125 -19.444652 -8.492504 0.000000 0.000000 0.000000 -5.019355 1.931774 -3.197911 2.343091 -3.462318 16.741309 0.000000 0.000000 0.000000 13.478347 29.342742 51.853556 13.446232 26.386588 -0.605802 0.000000 0.000000 0.000000 
0.262056 112.948982 -61.468987 0.000000 0.000000 0.000000 170.041767 -61.201487 168.763852 -30.301813 -0.428902 13.694110 36.648152 -1.470427 -2.065065 -5.347951 1.852985 -5.963008 2.574852 6.807082 -8.072502 0.000000 0.000000 0.000000 170.041767 -61.201487 168.763852 -13.912576 -11.121395 9.961394 24.059425 13.394750 1.677376 -11.914284 -0.350480 -13.871509 -2.374900 -7.985143 0.467722 0.000000 0.000000 0.000000 170.041767 -61.201487 168.763852 5.114020 2.303506 5.298129 -5.105463 2.660214 -2.985250 0.000000 0.000000 0.000000 0.000000 0.000000 0.000000 -4.948699 2.420743 -3.321705 1.055487 22.542819 10.042751 3.926666 26.820355 -13.626396 0.000000 0.000000 0.000000 -4.948699 2.420743 -3.321705 1.084987 -0.270537 0.764948 0.000000 0.000000 0.000000 7.759419 1.002657 -69.954565 9.038386 -17.908105 -8.643452 0.000000 0.000000 0.000000 -4.948699 2.420743 -3.321705 2.402569 -3.497407 16.751801 0.000000 0.000000 0.000000 12.583205 31.110917 52.037763 13.766157 26.236976 -1.171566 0.000000 0.000000 0.000000 
-0.670255 113.215797 -63.631828 0.000000 0.000000 0.000000 171.912965 -55.401884 170.972175 -30.292183 -7.234543 9.365600 34.911385 -1.534219 -1.872741 -4.650510 2.490226 -7.107908 2.407374 10.172824 -10.169142 0.000000 0.000000 0.000000 171.912965 -55.401884 170.972175 -12.342246 -8.711730 10.734718 22.911117 17.628037 2.748397 -10.977121 -0.984913 -16.167773 -2.532331 -7.847128 0.422482 0.000000 0.000000 0.000000 171.912965 -55.401884 170.972175 5.494572 2.740918 4.646471 -4.780149 2.924331 -2.745297 0.000000 0.000000 0.000000 0.000000 0.000000 0.000000 -4.630334 2.689127 -3.101843 1.155760 19.904764 9.110444 2.411545 23.932114 -11.826768 0.000000 0.000000 0.000000 -4.630334 2.689127 -3.101843 1.095807 -0.075117 0.979791 0.000000 0.000000 0.000000 7.590609 1.535485 -71.647373 10.023765 -14.552008 -9.196433 0.000000 0.000000 0.000000 -4.630334 2.689127 -3.101843 2.421331 -3.425024 16.328214 0.000000 0.000000 0.000000 10.845205 33.443874 52.653628 13.606761 25.436956 -1.713359 0.000000 0.000000 0.000000 
-1.613751 113.542931 -65.878227 0.000000 0.000000 0.000000 173.268895 -49.621382 172.705240 -31.310871 -12.465189 5.597502 32.609628 -3.051308 -1.732840 -3.613619 2.989642 -8.143203 1.874422 11.869047 -11.725312 0.000000 0.000000 0.000000 173.268895 -49.621382 172.705240 -10.594656 -6.375960 11.215650 21.589721 21.727540 3.737996 -9.921524 -1.469555 -18.208704 -2.711718 -7.717795 0.385998 0.000000 0.000000 0.000000 173.268895 -49.621382 172.705240 5.825885 3.088769 3.763162 -4.340195 3.082391 -2.375849 0.000000 0.000000 0.000000 0.000000 0.000000 0.000000 -4.206304 2.861852 -2.734080 0.950729 16.316506 7.563397 0.407510 19.778510 -9.101176 0.000000 0.000000 0.000000 -4.206304 2.861852 -2.734080 1.107254 0.303886 0.807198 0.000000 0.000000 0.000000 7.408441 2.071032 -72.955177 10.915623 -11.563107 -9.734072 0.000000 0.000000 0.000000 -4.206304 2.861852 -2.734080 2.431049 -3.326003 15.793149 0.000000 0.000000 0.000000 8.839828 35.899259 53.578131 13.326700 24.465230 -2.246112 0.000000 0.000000 0.000000 
-2.509629 113.968178 -68.139069 0.000000 0.000000 0.000000 174.287358 -43.857434 174.164196 -32.419124 -15.093769 2.688152 29.390632 -6.528129 -1.710498 -2.711325 3.337601 -8.483568 1.692786 11.247016 -12.677622 0.000000 0.000000 0.000000 174.287358 -43.857434 174.164196 -8.681503 -4.177044 11.351923 20.036911 25.708111 4.622883 -8.699492 -1.755259 -19.935669 -2.901949 -7.600868 0.358167 0.000000 0.000000 0.000000 174.287358 -43.857434 174.164196 6.129792 3.345683 2.686059 -3.823014 3.170204 -1.918941 0.000000 0.000000 0.000000 0.000000 0.000000 0.000000 -3.711999 2.972079 -2.266648 1.045937 12.881293 6.238501 -1.276177 15.692121 -6.400005 0.000000 0.000000 0.000000 -3.711999 2.972079 -2.266648 1.128075 0.848196 0.264309 0.000000 0.000000 0.000000 7.633037 2.661688 -73.734932 11.313419 -9.654540 -10.121440 0.000000 0.000000 0.000000 -3.711999 2.972079 -2.266648 2.440284 -3.221741 15.234365 0.000000 0.000000 0.000000 6.725019 38.339112 54.763770 13.038094 23.453604 -2.773353 0.000000 0.000000 0.000000 
-3.352316 114.367676 -70.440887 0.000000 0.000000 0.000000 175.008271 -38.361829 175.294059 -33.590167 -17.195915 0.237356 26.076853 -8.860722 -1.581489 0.024998 3.603057 -10.066541 1.167973 11.639476 -14.489541 0.000000 0.000000 0.000000 175.008271 -38.361829 175.294059 -6.707423 -2.268035 11.295281 18.483796 29.525945 5.360666 -7.502803 -1.911640 -21.418216 -3.091919 -7.501693 0.338475 0.000000 0.000000 0.000000 175.008271 -38.361829 175.294059 6.462274 3.517514 1.667587 -3.332908 3.215096 -1.491993 0.000000 0.000000 0.000000 0.000000 0.000000 0.000000 -3.245038 3.039653 -1.825541 1.967953 9.973765 5.143722 -2.713794 12.030566 -3.645689 0.000000 0.000000 0.000000 -3.245038 3.039653 -1.825541 1.160116 1.423511 -0.352705 0.000000 0.000000 0.000000 8.211013 3.231019 -74.239840 11.193043 -8.407372 -10.459095 0.000000 0.000000 0.000000 -3.245038 3.039653 -1.825541 2.449884 -3.114363 14.659348 0.000000 0.000000 0.000000 4.548037 40.712319 56.200050 12.752594 22.436102 -3.289725 0.000000 0.000000 0.000000 
-4.165242 114.680573 -72.993164 0.000000 0.000000 0.000000 175.421634 -33.875662 176.031761 -34.593522 -17.909157 -1.592357 22.731629 -10.312462 -1.383898 0.837252 3.820519 -10.841408 0.655671 9.305164 -14.398208 0.000000 0.000000 0.000000 175.421634 -33.875662 176.031761 -4.536888 -0.718093 11.179653 16.762411 32.413202 5.985145 -6.511487 -1.754981 -22.665407 -3.270625 -7.424581 0.326399 0.000000 0.000000 0.000000 175.421634 -33.875662 176.031761 6.839065 3.474889 0.915505 -2.958952 3.119210 -1.202292 0.000000 0.000000 0.000000 0.000000 0.000000 0.000000 -2.890249 2.964192 -1.511319 2.974940 7.288106 4.162601 -3.657078 8.610148 -1.318653 0.000000 0.000000 0.000000 -2.890249 2.964192 -1.511319 1.203328 2.030685 -1.104456 0.000000 0.000000 0.000000 8.996713 3.600619 -74.207068 10.679342 -7.754171 -10.762623 0.000000 0.000000 0.000000 -2.890249 2.964192 -1.511319 2.461197 -3.000605 14.094142 0.000000 0.000000 0.000000 3.695117 42.211573 57.170370 12.786341 22.710092 -4.000856 0.000000 0.000000 0.000000 
-4.958556 114.991310 -75.594727 0.000000 0.000000 0.000000 175.706931 -29.787292 176.606070 -34.994027 -17.306740 -2.704429 19.203353 -10.670741 -1.112337 0.238037 3.978369 -11.473682 -0.112254 7.748013 -14.811205 0.000000 0.000000 0.000000 175.706931 -29.787292 176.606070 -2.165533 0.452930 10.827348 14.782525 34.819013 6.541308 -5.509649 -1.086410 -23.630489 -3.445184 -7.375453 0.280064 0.000000 0.000000 0.000000 175.706931 -29.787292 176.606070 7.214419 3.324569 0.277479 -2.626757 2.962719 -0.968953 0.000000 0.000000 0.000000 0.000000 0.000000 0.000000 -2.575454 2.827455 -1.248811 3.718034 4.582339 3.268666 -4.229222 5.226744 0.707531 0.000000 0.000000 0.000000 -2.575454 2.827455 -1.248811 1.261569 2.444820 -1.823087 0.000000 0.000000 0.000000 9.445923 3.915477 -73.928424 10.681885 -7.169265 -10.956996 0.000000 0.000000 0.000000 -2.575454 2.827455 -1.248811 2.473807 -2.885287 13.525536 0.000000 0.000000 0.000000 3.337881 43.403386 57.950590 12.978819 23.409092 -4.764825 0.000000 0.000000 0.000000 
